<svg width="19" height="19" viewBox="0 0 19 19" fill="none" xmlns="http://www.w3.org/2000/svg">
<path d="M5.65343 2.23859C6.21665 2.42938 6.75246 2.69313 7.24718 3.02309C7.94586 2.84452 8.66428 2.75481 9.38543 2.75609C10.1302 2.75609 10.8487 2.84909 11.5222 3.02234C12.0167 2.6927 12.5523 2.42921 13.1152 2.23859C13.6379 2.06084 14.3827 1.77284 14.8252 2.26259C15.1252 2.59559 15.2002 3.15359 15.2534 3.57959C15.3134 4.05509 15.3277 4.67459 15.1702 5.28959C15.7724 6.06734 16.1354 6.99509 16.1354 8.00609C16.1354 9.53759 15.3059 10.8673 14.0782 11.7883C13.4873 12.226 12.832 12.5691 12.1357 12.8053C12.2962 13.1728 12.3854 13.5793 12.3854 14.0061V16.2561C12.3854 16.455 12.3064 16.6458 12.1658 16.7864C12.0251 16.9271 11.8343 17.0061 11.6354 17.0061H7.13543C6.93651 17.0061 6.74575 16.9271 6.6051 16.7864C6.46444 16.6458 6.38543 16.455 6.38543 16.2561V15.5128C5.66918 15.6006 5.06843 15.5226 4.55768 15.3058C4.02368 15.0793 3.65168 14.7283 3.37193 14.3923C3.10643 14.0743 2.81693 13.3573 2.39843 13.2178C2.30496 13.1867 2.21853 13.1375 2.14409 13.073C2.06965 13.0084 2.00864 12.9299 1.96456 12.8418C1.87553 12.6639 1.86082 12.4579 1.92368 12.2691C1.98653 12.0803 2.1218 11.9243 2.29973 11.8352C2.47765 11.7462 2.68366 11.7315 2.87243 11.7943C3.37193 11.9608 3.69743 12.3208 3.92018 12.6103C4.28018 13.0753 4.57268 13.6828 5.14268 13.9251C5.37743 14.0248 5.72168 14.0901 6.26018 14.0166L6.38543 13.9911C6.38686 13.5829 6.47185 13.1794 6.63518 12.8053C5.93887 12.5691 5.28353 12.226 4.69268 11.7883C3.46493 10.8673 2.63543 9.53834 2.63543 8.00609C2.63543 6.99659 2.99768 6.06959 3.59843 5.29259C3.44093 4.67759 3.45443 4.05659 3.51443 3.58034L3.51818 3.55184C3.57293 3.11534 3.63668 2.60159 3.94268 2.26259C4.38518 1.77284 5.13068 2.06159 5.65268 2.23934L5.65343 2.23859Z" fill="#686868"/>
</svg>
