<svg width="545" height="208" viewBox="0 0 545 208" fill="none" xmlns="http://www.w3.org/2000/svg">
<path d="M68.928 79H50.88V14.68H68.928V79ZM20.928 79H2.88V14.68H20.928V79ZM60.192 54.808H7.584V38.584H60.192V54.808ZM104.741 79H86.6925V14.68H104.741V79ZM143.812 79H91.5885V62.776H143.812V79ZM142.373 54.712H91.5885V38.584H142.373V54.712ZM143.812 30.904H91.5885V14.68H143.812V30.904ZM178.991 79H160.943V14.68H185.423L197.231 41.368L203.567 57.976H204.815L210.863 41.368L222.095 14.68H246.575V79H228.527V52.408L229.199 41.656H227.951L224.303 52.408L214.703 75.16H192.815L183.215 52.408L179.567 41.656H178.319L178.991 52.408V79ZM280.765 79H260.509L288.253 14.68H314.077L341.917 79H321.181L305.917 41.848L301.693 31H300.445L296.317 41.848L280.765 79ZM324.349 67.096H276.925V50.872H324.349V67.096ZM373.897 79H355.849V14.68H375.049L392.905 38.776L402.313 53.56H403.561L402.697 39.544V14.68H420.745V79H401.545L382.537 54.232L374.377 41.56H373.129L373.897 53.848V79ZM477.896 79H459.848V14.68H477.896V79ZM500.552 30.904H437.096V14.68H500.552V30.904Z" fill="#4D4D4D"/>
<path d="M541.304 79H517.88V60.568H541.304V79Z" fill="#4D4D4D"/>
<path d="M195.428 191H177.38V126.68H214.916C220.612 126.68 225.38 127.448 229.22 128.984C233.06 130.52 235.94 132.76 237.86 135.704C239.844 138.584 240.836 142.136 240.836 146.36C240.836 149.752 240.228 152.696 239.012 155.192C237.86 157.624 236.004 159.608 233.444 161.144C230.884 162.616 227.556 163.608 223.46 164.12V165.08C226.788 165.912 229.156 167.16 230.564 168.824C232.036 170.424 233.38 172.44 234.596 174.872L242.564 191H221.732L214.052 175.256C213.284 173.656 212.484 172.408 211.652 171.512C210.82 170.616 209.732 170.008 208.388 169.688C207.044 169.304 205.188 169.112 202.82 169.112H195.428V191ZM195.428 142.904V155.672H214.724C217.348 155.672 219.204 155.288 220.292 154.52C221.38 153.752 221.924 151.992 221.924 149.24C221.924 146.68 221.38 144.984 220.292 144.152C219.204 143.32 217.348 142.904 214.724 142.904H195.428ZM273.859 191H253.602L281.347 126.68H307.171L335.011 191H314.275L299.011 153.848L294.787 143H293.539L289.411 153.848L273.859 191ZM317.443 179.096H270.019V162.872H317.443V179.096ZM366.991 191H348.943V126.68H366.991V191Z" fill="#4D4D4D"/>
</svg>
