<svg width="1715" height="200" viewBox="0 0 1715 200" fill="none" xmlns="http://www.w3.org/2000/svg">
<path d="M143.6 164H106V30H143.6V164ZM43.6 164H6V30H43.6V164ZM125.4 113.6H15.8V79.8H125.4V113.6ZM218.209 164H180.609V30H218.209V164ZM299.609 164H190.809V130.2H299.609V164ZM296.609 113.4H190.809V79.8H296.609V113.4ZM299.609 63.8H190.809V30H299.609V63.8ZM372.897 164H335.297V30H386.297L410.897 85.6L424.097 120.2H426.697L439.297 85.6L462.697 30H513.697V164H476.097V108.6L477.497 86.2H474.897L467.297 108.6L447.297 156H401.697L381.697 108.6L374.097 86.2H371.497L372.897 108.6V164ZM584.927 164H542.727L600.527 30H654.327L712.327 164H669.127L637.327 86.6L628.527 64H625.927L617.327 86.6L584.927 164ZM675.727 139.2H576.927V105.4H675.727V139.2ZM778.952 164H741.352V30H781.352L818.552 80.2L838.152 111H840.752L838.952 81.8V30H876.552V164H836.552L796.952 112.4L779.952 86H777.352L778.952 111.6V164ZM995.617 164H958.017V30H995.617V164ZM1042.82 63.8H910.617V30H1042.82V63.8Z" fill="#4D4D4D"/>
<path d="M1200.8 164H1152V125.6H1200.8V164Z" fill="#4D4D4D"/>
<path d="M1350.6 164H1313V30H1391.2C1403.07 30 1413 31.6 1421 34.8C1429 38 1435 42.6667 1439 48.8C1443.13 54.8 1445.2 62.2 1445.2 71C1445.2 78.0667 1443.93 84.2 1441.4 89.4C1439 94.4667 1435.13 98.6 1429.8 101.8C1424.47 104.867 1417.53 106.933 1409 108V110C1415.93 111.733 1420.87 114.333 1423.8 117.8C1426.87 121.133 1429.67 125.333 1432.2 130.4L1448.8 164H1405.4L1389.4 131.2C1387.8 127.867 1386.13 125.267 1384.4 123.4C1382.67 121.533 1380.4 120.267 1377.6 119.6C1374.8 118.8 1370.93 118.4 1366 118.4H1350.6V164ZM1350.6 63.8V90.4H1390.8C1396.27 90.4 1400.13 89.6 1402.4 88C1404.67 86.4 1405.8 82.7333 1405.8 77C1405.8 71.6667 1404.67 68.1333 1402.4 66.4C1400.13 64.6667 1396.27 63.8 1390.8 63.8H1350.6ZM1514 164H1471.8L1529.6 30H1583.4L1641.4 164H1598.2L1566.4 86.6L1557.6 64H1555L1546.4 86.6L1514 164ZM1604.8 139.2H1506V105.4H1604.8V139.2ZM1708.02 164H1670.42V30H1708.02V164Z" fill="#4D4D4D"/>
</svg>
